<?xml version="1.0" encoding="utf-8"?>
<!-- Generator: Adobe Illustrator 24.3.0, SVG Export Plug-In . SVG Version: 6.00 Build 0)  -->
<svg version="1.1" id="Layer_1" xmlns="http://www.w3.org/2000/svg" xmlns:xlink="http://www.w3.org/1999/xlink" x="0px" y="0px"
	 viewBox="0 0 678.7 85" style="enable-background:new 0 0 678.7 85;" xml:space="preserve">
<style type="text/css">
	.st0{fill:#91D500;}
	.st1{fill:#93D500;}
	.st2{fill-rule:evenodd;clip-rule:evenodd;fill:#93D500;}
</style>
<g>
	<path class="st0" d="M587.4,25c-1.6,0.1-3.1-0.5-4.2-1.6c-1.1-1.2-1.7-2.7-1.6-4.3c-0.1-1.6,0.5-3.1,1.5-4.3
		c1.1-1.1,2.7-1.7,4.2-1.6c1.3,0,2.6,0.4,3.7,1.2c1,0.8,1.7,2,1.8,3.3h-3.2c-0.1-0.5-0.4-1-0.8-1.3c-0.4-0.3-1-0.5-1.5-0.4
		c-0.7,0-1.4,0.3-1.9,0.8c-0.5,0.7-0.7,1.5-0.6,2.4c-0.1,0.8,0.2,1.7,0.6,2.4c0.4,0.6,1.1,0.9,1.9,0.8c0.6,0,1.1-0.2,1.6-0.5
		c0.4-0.4,0.7-0.9,0.8-1.5h3.2c-0.1,1.3-0.7,2.6-1.8,3.4C590,24.6,588.6,25,587.4,25z"/>
	<path class="st0" d="M611.3,24.7H608l-0.5-1.5h-4.4l-0.5,1.5h-3.2l4-11.2h3.8L611.3,24.7z M604.6,18.1l-0.8,2.6h2.7l-0.8-2.6
		c-0.3-0.9-0.5-1.5-0.5-1.8C605,17.1,604.8,17.7,604.6,18.1L604.6,18.1z"/>
	<polygon class="st0" points="626.6,13.5 625,20.2 623.4,13.5 618.5,13.5 618.5,24.7 621.6,24.7 621.6,17.2 623.8,24.7 626.4,24.7 
		628.4,17.2 628.4,24.7 631.5,24.7 631.5,13.5 	"/>
	<path class="st0" d="M639.8,13.5h5.3c1.1-0.1,2.3,0.3,3.2,1c0.8,0.7,1.2,1.8,1.2,2.9c0.1,1.1-0.4,2.1-1.2,2.9c-0.9,0.7-2,1.1-3.2,1
		H643v3.4h-3.2V13.5z M643,18.7h1.9c0.4,0,0.7-0.1,1-0.3c0.3-0.2,0.4-0.6,0.4-0.9c0-0.4-0.1-0.7-0.4-0.9c-0.3-0.2-0.6-0.3-1-0.3H643
		V18.7z"/>
	<path class="st0" d="M660.4,24.7h-3.2V13.5h3.2V24.7z"/>
	<path class="st0" d="M570.2,4.4v29.5h90.2v16l12.2-16V4.4H570.2z M632.5,30.7h-59.3V7.5h96.1v23.2H632.5z"/>
</g>
<g>
	<path class="st0" d="M426.8,57.3c0,0.4,0.2,0.7,0.4,1c0.3,0.3,0.7,0.4,1.1,0.4v-2.9c-0.3,0-0.6,0.1-0.9,0.2
		C427.2,56.3,426.8,56.8,426.8,57.3z"/>
	<polygon class="st0" points="428.6,68.8 428.6,66.6 425.3,67.7 	"/>
	<path class="st0" d="M426.8,46.3c0,0.5,0.2,0.9,0.6,1.1c0.4,0.3,1,0.4,1.5,0.4s0.9-0.1,1.3-0.4c0.4-0.3,0.6-0.7,0.5-1.1
		c0.1-0.5-0.2-1-0.6-1.2c-0.5-0.2-1-0.3-1.5-0.3c-0.4,0-0.8,0.1-1.2,0.2C427.1,45.3,426.8,45.8,426.8,46.3z"/>
	<path class="st0" d="M422.1,79.9h11.8V41.2h-11.8V79.9z M428.3,71.4c0.7,0,1.4,0.1,2,0.4c1.4,1,1.7,2.8,0.7,4.2
		c-0.2,0.3-0.4,0.5-0.7,0.7c-0.6,0.3-1.3,0.4-2,0.4h-4v-1h4.4c0.4,0,0.9-0.1,1.3-0.3c0.5-0.3,0.8-0.9,0.8-1.5
		c0.1-0.7-0.3-1.3-0.8-1.7c-0.4-0.2-0.8-0.3-1.2-0.2h-4.4v-1H428.3z M431.5,65.5l-2.2,0.8v2.8l2.1,0.8v1l-7.1-2.7v-1.1l7.1-2.6
		L431.5,65.5z M431.5,62v1l-5.2,1.9v-1l4.2-1.4l-4.2-1.4v-1L431.5,62z M430.5,58.3c0.3-0.3,0.5-0.7,0.5-1.1c0-0.4-0.1-0.8-0.5-1.1
		c-0.2-0.2-0.4-0.3-0.6-0.3V55c0.2,0,0.4,0.1,0.6,0.2c0.2,0.1,0.4,0.3,0.6,0.4c0.3,0.3,0.5,0.6,0.5,1c0.1,0.2,0.1,0.5,0.1,0.7
		c0,0.6-0.2,1.2-0.7,1.6c-0.6,0.5-1.3,0.7-2,0.7s-1.4-0.2-2-0.7c-0.5-0.4-0.8-1.1-0.8-1.8c0-0.4,0.1-0.7,0.2-1.1
		c0.2-0.3,0.4-0.6,0.7-0.8c0.3-0.2,0.6-0.3,0.9-0.3c0.4-0.1,0.8-0.1,1.1-0.1v3.8C429.7,58.7,430.1,58.6,430.5,58.3L430.5,58.3z
		 M431.5,53v0.9h-5.2V53H431.5z M425.3,53v0.9h-1V53H425.3z M427.1,49.1L427.1,49.1v0.2c0,0.4,0.1,0.8,0.4,1s0.6,0.4,1,0.4h3v0.9
		h-5.2v-0.8h0.9c-0.2-0.1-0.5-0.3-0.6-0.5c-0.2-0.2-0.4-0.6-0.4-0.9v-0.1c0,0,0-0.1,0-0.2C426.2,49.1,427.1,49.1,427.1,49.1z
		 M430.8,44.5c0.6,0.5,0.9,1.2,0.8,1.9c0,0.6-0.2,1.3-0.7,1.7s-1.2,0.7-1.9,0.6c-0.7,0-1.5-0.3-2-0.7s-0.8-1.1-0.8-1.8
		c0-0.6,0.2-1.2,0.7-1.7s1.3-0.8,2-0.7C429.6,43.9,430.3,44.1,430.8,44.5L430.8,44.5z"/>
	<g>
		<g>
			<path class="st1" d="M438.5,41.3h22.9v8.2h-12.8v6.6h12V64h-12v7.7h13.3v8.2h-23.4V41.3z"/>
			<path class="st1" d="M466.6,41.3H481l4.1,22.9h0.1l4.1-22.9h14.4v38.6h-9.4V51.1h-0.1l-5.4,28.8h-7.3l-5.4-28.8H476v28.8h-9.4
				V41.3z"/>
			<path class="st1" d="M509.3,41.3h22.9v8.2h-12.8v6.6h12V64h-12v7.7h13.3v8.2h-23.4V41.3z"/>
			<path class="st1" d="M537.8,41.3H549l6.5,23.8h0.1V41.3h9.4v38.6h-11L547.3,56h-0.1v23.9h-9.4V41.3z"/>
			<path class="st1" d="M576.2,49.8h-7.6v-8.6h25.2v8.6h-7.6v30.1h-10.1V49.8z"/>
			<path class="st1" d="M600.9,41.3h12.7l9.4,38.6h-10.7l-1-6.8h-8l-1,6.8h-10.7L600.9,41.3z M607.3,49.2h-0.1l-2.8,16.4h5.6
				L607.3,49.2z"/>
			<path class="st1" d="M641,52.4v-0.9c0-2.3-0.9-4.2-2.9-4.2c-2.2,0-3.1,1.7-3.1,3.4c0,7.6,16.5,3.9,16.5,18
				c0,8.2-4.8,11.9-13.7,11.9c-8.3,0-13-2.9-13-10.9v-1.4h9.7v0.9c0,3.3,1.4,4.5,3.3,4.5c2.1,0,3.2-1.6,3.2-3.7
				c0-7.6-15.8-3.8-15.8-17.5c0-7.8,4.2-12.1,12.7-12.1c8.8,0,12.5,3.6,12.5,11.9H641z"/>
		</g>
	</g>
</g>
<g>
	<path class="st2" d="M70.1,7.2c-0.2,0-0.3,0-0.5,0c-1,0-1.9,0.5-2.5,1.2l-8.4,10.3c-1.2,1.2-3,1.9-4.8,1.9c-3.8,0-7-3-7-6.8
		c0-7.1-5.5-12.8-12.6-13.3c-0.7,0-1.2,0.5-1.2,1.2l0,8.6l0,3.5c0,3.7-3,6.8-6.8,6.8c-1.9,0-3.7-0.7-4.9-1.9L12.9,8.4
		c-0.6-0.7-1.5-1.2-2.5-1.2c-0.2,0-0.3,0-0.5,0C4.4,8,0.5,12.6,0.5,18.2l0,55.2c0,6.1,5.1,11.1,11.3,11.1h56.4
		c6.2,0,11.3-5,11.3-11.1l0-55.2C79.5,12.6,75.6,8,70.1,7.2z M68.2,71.7c0,1-0.8,1.7-1.8,1.7l-15.1,0c-3,0-5.5,1.6-6.9,4.2
		c-0.6,1-1.7,1.7-3,1.7H40c-1.3,0-2.4-0.7-3.2-1.9c-1.3-2.4-3.8-4-6.8-4H13.6c-1,0-1.8-0.8-1.8-1.7l0-21.6c0-1,0.7-1.8,1.7-1.8H30
		c2.9,0,5.5,1.6,6.9,4.2c0.6,1,1.7,1.7,3,1.7h1.3c1.3,0,2.4-0.7,3.2-1.9c1.3-2.4,3.8-4,6.8-4l15.2,0c1,0,1.8,0.8,1.8,1.8L68.2,71.7z
		"/>
	<path class="st2" d="M105.3,48.4h2.9V35.2h-2.9v7.7c0,2-0.8,3.6-3.2,3.6c-1.6,0-2.5-0.8-2.5-3.2v-8.1h-2.9v8.4
		c0,3.4,1.5,5.2,4.9,5.2c1.5,0,3-0.9,3.8-2.2L105.3,48.4z"/>
	<path class="st2" d="M119.4,40.1v8.3h2.9v-9.1c0-3-1.8-4.5-4.7-4.5c-1.7,0-3.2,0.9-4.1,2.4l-0.1-2h-2.8v13.2h2.9v-7.8
		c0-1.9,1.3-3.5,3.2-3.5C118.6,37.1,119.4,38,119.4,40.1z"/>
	<rect x="125" y="35.2" class="st2" width="2.9" height="13.2"/>
	<rect x="125" y="30.1" class="st2" width="2.9" height="2.8"/>
	<polygon class="st2" points="137.3,48.4 142,35.2 139,35.2 135.8,45.3 132.4,35.2 129.2,35.2 134,48.4 	"/>
	<path class="st2" d="M149,34.8c-3.9,0-6.4,3.2-6.4,7c0,4.1,2.3,6.9,6.5,6.9c2.9,0,5.3-1.6,6-4.5h-2.8c-0.5,1.5-1.5,2.2-3.2,2.2
		c-2.4,0-3.6-1.8-3.6-3.9h9.7C155.7,38.6,153.2,34.8,149,34.8z M145.5,40.6c0.1-2,1.5-3.5,3.5-3.5c2,0,3.2,1.7,3.3,3.5H145.5z"/>
	<path class="st2" d="M159.9,42.1c0-2.9,1.6-4.5,3.6-4.5c0.4,0,0.8,0.1,1.3,0.1v-2.8c-0.3,0-0.4-0.1-1.1-0.1c-1.8,0-3.5,1.5-3.9,2.9
		l-0.1-2.6H157v13.2h2.9V42.1z"/>
	<path class="st2" d="M172.2,40.6c-2.1-0.5-4.3-0.7-4.3-2.1c0-1.1,1.6-1.4,2.4-1.4c1.3,0,2.4,0.4,2.7,1.8h3
		c-0.4-2.9-2.8-4.1-5.5-4.1c-2.4,0-5.5,0.9-5.5,3.8c0,2.7,2.1,3.4,4.2,3.9c2.1,0.5,4.2,0.7,4.3,2.2c0.1,1.5-1.8,1.7-2.9,1.7
		c-1.6,0-2.8-0.6-3-2.3h-2.9c0,3.1,2.5,4.6,5.8,4.6c2.7,0,5.9-1.1,5.9-4.3C176.5,41.8,174.3,41.1,172.2,40.6z"/>
	<rect x="178.3" y="35.2" class="st2" width="2.9" height="13.2"/>
	<rect x="178.3" y="30.1" class="st2" width="2.9" height="2.8"/>
	<path class="st2" d="M189.4,48.7c1.7,0,3.3-0.6,4.1-2.1l0.1,1.8h2.8V30.1h-2.9v6.7c-0.9-1.5-2.8-2.1-4.4-2.1
		c-2.9,0-5.7,2.1-5.7,6.9C183.2,45.6,185.2,48.7,189.4,48.7z M189.8,37.1c2.2,0,3.7,1.7,3.7,4.6c0,2.3-1.1,4.7-3.7,4.7
		c-2.5,0-3.7-2.2-3.7-4.5C186.1,39.5,187.1,37.1,189.8,37.1z"/>
	<path class="st2" d="M209.6,48.7c0.5,0,1.4-0.2,1.8-0.3v-2c-0.3,0.1-0.5,0.1-0.7,0.1c-0.5,0-0.7-0.3-0.7-1v-6.8
		c0-2.8-2.7-3.8-5.3-3.8c-2.9,0-5.8,1-6,4.4h2.9c0.1-1.4,1.3-2.1,2.9-2.1c1.2,0,2.7,0.3,2.7,1.8c0,1.7-1.9,1.5-4,1.9
		c-2.5,0.3-5.1,0.8-5.1,4.1c0,2.6,2.1,3.9,4.5,3.9c1.6,0,3.4-0.5,4.6-1.6C207.5,48.3,208.4,48.7,209.6,48.7z M207.1,43.9
		c0,1.8-2,2.5-3.3,2.5c-1,0-2.7-0.4-2.7-1.7c0-1.5,1.1-2,2.4-2.2c1.3-0.2,2.7-0.2,3.6-0.8V43.9z"/>
	<path class="st2" d="M218.2,48.7c1.7,0,3.3-0.6,4.1-2.1l0,1.8h2.8V30.1h-2.9v6.7c-0.9-1.5-2.8-2.1-4.4-2.1c-2.9,0-5.7,2.1-5.7,6.9
		C212,45.6,214,48.7,218.2,48.7z M218.6,37.1c2.2,0,3.7,1.7,3.7,4.6c0,2.3-1.1,4.7-3.7,4.7c-2.5,0-3.7-2.2-3.7-4.5
		C214.9,39.5,215.9,37.1,218.6,37.1z"/>
	<path class="st2" d="M233.5,48.7c2.9,0,5.3-1.6,6-4.5h-2.8c-0.5,1.5-1.5,2.2-3.2,2.2c-2.4,0-3.6-1.8-3.6-3.9h9.7
		c0.5-4-2.1-7.7-6.2-7.7c-3.9,0-6.4,3.2-6.4,7C227.1,45.8,229.4,48.7,233.5,48.7z M233.5,37.1c2,0,3.2,1.7,3.3,3.5H230
		C230.1,38.6,231.4,37.1,233.5,37.1z"/>
	<path class="st2" d="M257.6,46.6l0.1,1.8h2.8V30.1h-2.9v6.7c-0.9-1.5-2.8-2.1-4.4-2.1c-2.9,0-5.7,2.1-5.7,6.9c0,4,2,7.1,6.2,7.1
		C255.2,48.7,256.9,48.1,257.6,46.6z M253.9,46.4c-2.5,0-3.7-2.2-3.7-4.5c0-2.4,1-4.8,3.7-4.8c2.2,0,3.7,1.7,3.7,4.6
		C257.6,44,256.5,46.4,253.9,46.4z"/>
	<path class="st2" d="M274.9,44.2h-2.8c-0.5,1.5-1.5,2.2-3.2,2.2c-2.4,0-3.5-1.8-3.5-3.9h9.7c0.5-4-2.1-7.7-6.2-7.7
		c-3.9,0-6.4,3.2-6.4,7c0,4.1,2.3,6.9,6.5,6.9C271.8,48.7,274.3,47.1,274.9,44.2z M268.8,37.1c2,0,3.2,1.7,3.3,3.5h-6.8
		C265.4,38.6,266.8,37.1,268.8,37.1z"/>
	<path class="st2" d="M287.7,40.8c-2.4,0.3-5.1,0.8-5.1,4.1c0,2.6,2.1,3.9,4.5,3.9c1.6,0,3.4-0.5,4.6-1.6c0.2,1.2,1.1,1.6,2.2,1.6
		c0.5,0,1.4-0.2,1.8-0.3v-2c-0.3,0.1-0.5,0.1-0.7,0.1c-0.5,0-0.7-0.3-0.7-1v-6.8c0-2.8-2.7-3.8-5.3-3.8c-2.9,0-5.8,1-6,4.4h2.9
		c0.1-1.4,1.3-2.1,2.9-2.1c1.2,0,2.7,0.3,2.7,1.8C291.7,40.6,289.8,40.4,287.7,40.8z M291.5,43.9c0,1.8-2,2.5-3.3,2.5
		c-1,0-2.7-0.4-2.7-1.7c0-1.5,1.1-2,2.4-2.2c1.3-0.2,2.7-0.2,3.6-0.8V43.9z"/>
	<polygon class="st2" points="305.5,35.2 302.3,45.3 298.9,35.2 295.8,35.2 300.6,48.4 303.8,48.4 308.6,35.2 	"/>
	<path class="st2" d="M315.5,34.8c-3.9,0-6.4,3.2-6.4,7c0,4.1,2.3,6.9,6.5,6.9c2.9,0,5.3-1.6,6-4.5h-2.8c-0.5,1.5-1.5,2.2-3.2,2.2
		c-2.4,0-3.6-1.8-3.6-3.9h9.7C322.3,38.6,319.7,34.8,315.5,34.8z M312.1,40.6c0.1-2,1.5-3.5,3.5-3.5c2,0,3.2,1.7,3.3,3.5H312.1z"/>
	<rect x="323.6" y="35.2" class="st2" width="2.9" height="13.2"/>
	<rect x="323.6" y="30.1" class="st2" width="2.9" height="2.8"/>
	<path class="st2" d="M336.9,34.9c-0.3,0-0.4-0.1-1.1-0.1c-1.8,0-3.5,1.5-3.9,2.9l-0.1-2.6h-2.7v13.2h2.9v-6.3
		c0-2.9,1.6-4.5,3.6-4.5c0.4,0,0.8,0.1,1.2,0.1V34.9z"/>
	<path class="st2" d="M343.2,34.8c-4.2,0-6.7,2.9-6.7,6.9c0,4.1,2.4,7,6.7,7c4.2,0,6.7-2.9,6.7-7C349.9,37.7,347.4,34.8,343.2,34.8z
		 M343.2,46.4c-2.6,0-3.8-2.4-3.8-4.7c0-2.3,1.2-4.7,3.8-4.7c2.6,0,3.8,2.4,3.8,4.7C347,44,345.8,46.4,343.2,46.4z"/>
	<path class="st2" d="M100.5,56.3h-1.6v4h-2.3v1.4h2.3v9c0,2.2,0.7,3,2.9,3c0.5,0,0.9-0.1,1.4-0.1v-1.4c-0.5,0.1-0.9,0.1-1.4,0.1
		c-1.2-0.1-1.3-0.7-1.3-1.7v-8.9h2.7v-1.4h-2.7V56.3z"/>
	<path class="st2" d="M110.8,59.9c-1.9,0-3.6,1.1-4.2,2.7l-0.1-7.3H105v18.2h1.6v-7.7c0.1-2.6,1.6-4.5,4.1-4.5c2.6,0,3.3,1.7,3.3,4
		v8.2h1.6V65C115.7,61.9,114.5,59.9,110.8,59.9z"/>
	<path class="st2" d="M123.5,59.9c-4.2,0-5.9,3.5-5.9,7c0,3.8,1.8,7,5.9,7c3.3,0,5.1-1.7,5.8-4.7h-1.6c-0.5,2-1.8,3.4-4.1,3.4
		c-3.1,0-4.3-2.8-4.3-5.2h10.1C129.4,63.6,127.7,59.9,123.5,59.9z M119.1,66c0.3-2.4,1.7-4.7,4.3-4.7c2.6,0,4.1,2.3,4.2,4.7H119.1z"
		/>
	<path class="st2" d="M136.5,59.9c-4,0-6.2,3.2-6.2,7c0,3.8,2.2,7,6.2,7c4,0,6.2-3.2,6.2-7C142.7,63.1,140.5,59.9,136.5,59.9z
		 M136.5,72.5c-3.1,0-4.6-2.8-4.6-5.6c0-2.8,1.5-5.6,4.6-5.6c3.1,0,4.6,2.8,4.6,5.6C141.1,69.7,139.6,72.5,136.5,72.5z"/>
	<path class="st2" d="M146.1,63.4l-0.1-3.1h-1.5v13.2h1.6v-7c0-2.7,2-4.9,4.9-4.7v-1.6C148.8,60,147,61.3,146.1,63.4z"/>
	<rect x="152.2" y="60.3" class="st2" width="1.6" height="13.2"/>
	<rect x="152.2" y="55.2" class="st2" width="1.6" height="2.6"/>
	<path class="st2" d="M166.4,71.2v-7c0-3.5-2.5-4.2-4.9-4.2c-3,0-5.2,1.3-5.3,4.4h1.6c0.1-2.1,1.5-3.1,3.5-3.1
		c1.9,0,3.4,0.5,3.4,2.7c0,1.5-0.7,1.6-2.1,1.8c-3.5,0.4-7.1,0.5-7.1,4.2c0,2.7,2,3.9,4.4,3.9c2.5,0,3.7-1,4.8-2.7
		c0.1,1.4,0.3,2.3,1.9,2.3c0.4,0,0.7,0,1-0.1V72c-0.1,0.1-0.3,0.1-0.5,0.1C166.7,72.1,166.4,71.8,166.4,71.2z M160.2,72.5
		c-1.5,0-2.9-1-2.9-2.6c0-2.6,3.4-2.6,6.1-3c0.4-0.1,1.1-0.2,1.4-0.6l0.1,2.1C164.8,71,162.6,72.5,160.2,72.5z"/>
	<path class="st2" d="M181.9,59.9c-2.1,0-4,1.1-4.7,2.9l-0.1-2.5h-1.5v18.1h1.6V71c0.7,1.9,2.7,2.9,4.6,2.9c4,0,5.9-3.2,5.9-7
		C187.9,63.2,185.9,59.9,181.9,59.9z M181.9,72.5c-3.4,0-4.6-2.9-4.6-5.6c0-3,1.1-5.6,4.6-5.6c3.1,0,4.3,2.9,4.3,5.6
		C186.2,69.6,185,72.5,181.9,72.5z"/>
	<path class="st2" d="M195.4,59.9c-4,0-6.2,3.2-6.2,7c0,3.8,2.2,7,6.2,7c4,0,6.2-3.2,6.2-7C201.6,63.1,199.5,59.9,195.4,59.9z
		 M195.4,72.5c-3.1,0-4.6-2.8-4.6-5.6c0-2.8,1.5-5.6,4.6-5.6c3.1,0,4.6,2.8,4.6,5.6C200,69.7,198.5,72.5,195.4,72.5z"/>
	<rect x="203.6" y="60.3" class="st2" width="1.6" height="13.2"/>
	<rect x="203.6" y="55.2" class="st2" width="1.6" height="2.6"/>
	<path class="st2" d="M213,59.9c-4.2,0-5.9,3.5-5.9,7c0,3.8,1.8,7,5.9,7c3.3,0,5.1-1.7,5.7-4.7h-1.6c-0.5,2-1.8,3.4-4.1,3.4
		c-3.1,0-4.3-2.8-4.3-5.2h10.1C219,63.6,217.3,59.9,213,59.9z M208.7,66c0.3-2.4,1.7-4.7,4.3-4.7c2.6,0,4.1,2.3,4.2,4.7H208.7z"/>
	<path class="st2" d="M226.7,66.3l-2.1-0.5c-1.1-0.3-2.7-0.8-2.7-2.2c0-1.7,1.7-2.3,3.1-2.3c1.8,0,3.4,0.9,3.4,2.9h1.6
		c-0.1-2.9-2.2-4.2-4.8-4.2c-2.3,0-5,1-5,3.7c0,2.2,1.6,3,3.7,3.5l2.1,0.5c1.5,0.4,2.9,0.9,2.9,2.4c0,1.8-2.1,2.5-3.6,2.5
		c-2.1,0-3.8-1.1-3.9-3.3h-1.6c0.3,3.2,2.3,4.7,5.4,4.7c2.5,0,5.3-1.1,5.3-4C230.5,67.6,228.5,66.5,226.7,66.3z"/>
	<rect x="232.3" y="60.3" class="st2" width="1.6" height="13.2"/>
	<rect x="232.3" y="55.2" class="st2" width="1.6" height="2.6"/>
	<path class="st2" d="M242.7,66.3l-2.1-0.5c-1.1-0.3-2.7-0.8-2.7-2.2c0-1.7,1.7-2.3,3.1-2.3c1.8,0,3.4,0.9,3.4,2.9h1.6
		c-0.1-2.9-2.2-4.2-4.8-4.2c-2.3,0-5,1-5,3.7c0,2.2,1.6,3,3.7,3.5l2.1,0.5c1.5,0.4,2.9,0.9,2.9,2.4c0,1.8-2.1,2.5-3.6,2.5
		c-2.1,0-3.8-1.1-3.9-3.3h-1.6c0.3,3.2,2.4,4.7,5.4,4.7c2.5,0,5.3-1.1,5.3-4C246.4,67.6,244.5,66.5,242.7,66.3z"/>
	<path class="st2" d="M261.1,59.9c-2.1,0-4,1.1-4.7,2.9l-0.1-2.5h-1.5v18.1h1.6V71c0.7,1.9,2.7,2.9,4.6,2.9c4,0,5.9-3.2,5.9-7
		C267,63.2,265.1,59.9,261.1,59.9z M261.1,72.5c-3.4,0-4.6-2.9-4.6-5.6c0-3,1.1-5.6,4.6-5.6c3.1,0,4.3,2.9,4.3,5.6
		C265.4,69.6,264.1,72.5,261.1,72.5z"/>
	<path class="st2" d="M270.5,63.4l-0.1-3.1H269v13.2h1.6v-7c0-2.7,2-4.9,4.9-4.7v-1.6C273.1,60,271.3,61.3,270.5,63.4z"/>
	<path class="st2" d="M299.6,60.3h-2l-3.7,5l-3.8-5h-2l4.7,6.3l-4.8,6.5V72c-0.1,0.1-0.3,0.1-0.5,0.1c-0.6,0-0.9-0.4-0.9-1v-7
		c0-3.5-2.5-4.2-4.9-4.2c-3,0-5.2,1.3-5.3,4.4h1.6c0.1-2.1,1.5-3.1,3.5-3.1c1.9,0,3.4,0.5,3.4,2.7c0,1.5-0.7,1.6-2.1,1.8
		c-3.5,0.4-7.1,0.5-7.1,4.2c0,2.7,2,3.9,4.4,3.9c2.5,0,3.7-1,4.8-2.7c0.1,1.4,0.3,2.3,1.9,2.3c0.3,0,0.6,0,0.8-0.1l0,0.1h2l4.1-5.5
		l4.1,5.5h2l-5.1-6.9L299.6,60.3z M280.4,72.5c-1.5,0-2.9-1-2.9-2.6c0-2.6,3.4-2.6,6.1-3c0.4-0.1,1.2-0.2,1.4-0.6l0.1,2.1
		C285,71,282.8,72.5,280.4,72.5z"/>
	<rect x="301.1" y="60.3" class="st2" width="1.6" height="13.2"/>
	<rect x="301.1" y="55.2" class="st2" width="1.6" height="2.6"/>
	<path class="st2" d="M311.5,66.3l-2.1-0.5c-1.1-0.3-2.7-0.8-2.7-2.2c0-1.7,1.7-2.3,3.1-2.3c1.8,0,3.4,0.9,3.4,2.9h1.6
		c-0.1-2.9-2.2-4.2-4.8-4.2c-2.3,0-5,1-5,3.7c0,2.2,1.6,3,3.7,3.5l2.1,0.5c1.5,0.4,2.9,0.9,2.9,2.4c0,1.8-2.1,2.5-3.6,2.5
		c-2.1,0-3.8-1.1-3.9-3.3h-1.6c0.3,3.2,2.3,4.7,5.4,4.7c2.5,0,5.3-1.1,5.3-4C315.2,67.6,313.3,66.5,311.5,66.3z"/>
</g>
</svg>
